MoBL_ARMS_module2_4_allmuscles_wrist_states		
version=1		
nRows=136		
nColumns=3		
inDegrees=yes		
		
# SIMM Motion File Header:		
name MoBL_ARMS_module2_4_allmuscles_wrist_states		
datacolumns 3		
datarows 136		
otherdata 1		
range 3.37281965 4.231017001		
endheader		
time	deviation	flexion
3.37281965	-2.351698182	51.5006134
3.377072563	-2.451422102	51.36022103
3.381325477	-2.55186467	51.22593065
3.38557839	-2.652839424	51.09802469
3.389831304	-2.754142541	50.97667389
3.394084217	-2.855526505	50.86195012
3.39833713	-2.956837748	50.75379772
3.402614788	-3.058536209	50.6514563
3.406892446	-3.159917371	50.55527965
3.413562309	-3.317215624	50.41669337
3.416514205	-3.38652069	50.35936559
3.420331222	-3.475860189	50.28841676
3.426068841	-3.6095306	50.18760362
3.430717137	-3.71720443	50.11025962
3.435365433	-3.824207538	50.03616847
3.441960212	-3.974535175	49.93581136
3.446897109	-4.08561575	49.8638912
3.451834007	-4.19520795	49.79447185
3.458009445	-4.329845162	49.71094852
3.464945562	-4.477356798	49.62129637
3.471881679	-4.620760689	49.53581349
3.48071826	-4.797442756	49.43252115
3.485540827	-4.8912554	49.37856219
3.490363395	-4.983400293	49.32615204
3.496474136	-5.09785134	49.26181943
3.506213536	-5.274908058	49.16372158
3.508279351	-5.311548134	49.14358531
3.511389703	-5.366104036	49.11370342
3.517919219	-5.478117395	49.05258193
3.523909355	-5.577817664	48.99820526
3.529899491	-5.674756197	48.94524247
3.535889627	-5.769250047	48.89351157
3.543689672	-5.88939236	48.82778876
3.55040213	-5.990910422	48.77265843
3.557114588	-6.090983342	48.71886458
3.562345095	-6.168082998	48.67801251
3.567575601	-6.244417138	48.63828517
3.572678041	-6.317752785	48.60087641
3.577780481	-6.389406933	48.56516727
3.584067028	-6.474423128	48.5240949
3.590353576	-6.554200153	48.4868533
3.595357402	-6.612446331	48.46015915
3.600361228	-6.665067167	48.4360993
3.605365054	-6.711581398	48.41461634
3.61036888	-6.751721159	48.39545148
3.615372706	-6.785738912	48.37805732
3.620376532	-6.81442484	48.3616344
3.625380358	-6.838489969	48.34522131
3.631475596	-6.86247557	48.32389515
3.635398344	-6.875313998	48.30881169
3.64153018	-6.891678442	48.28234586
3.647662016	-6.903265413	48.25164999
3.653793851	-6.91061333	48.21662359
3.659420301	-6.914832592	48.1813302
3.66504675	-6.917470301	48.14407759
3.670673199	-6.919135959	48.10610379
3.676580871	-6.920627307	48.06669737
3.682488542	-6.922167369	48.02851509
3.688396213	-6.923858246	47.99178794
3.694303884	-6.926259297	47.95615996
3.700211555	-6.929805884	47.92061002
3.706119227	-6.934273199	47.88384581
3.712026898	-6.939772853	47.84454915
3.716836663	-6.945515628	47.80972234
3.722826204	-6.954218715	47.76167462
3.728815745	-6.964191425	47.70753666
3.733802872	-6.973344423	47.65738521
3.73879	-6.982997933	47.60249388
3.743777127	-6.992856144	47.5429589
3.750575257	-7.006292011	47.45478021
3.757373386	-7.019277338	47.35935227
3.764171516	-7.031559527	47.25784567
3.769480755	-7.040578942	47.1751568
3.774789994	-7.04869843	47.09032367
3.780099233	-7.05560496	47.0043304
3.786789451	-7.062393444	46.89603445
3.792765528	-7.066270684	46.80121275
3.798741606	-7.068129828	46.71000476
3.804717684	-7.068111641	46.62393156
3.810693761	-7.065935192	46.54417362
3.816669839	-7.061781091	46.47155331
3.822645917	-7.055969981	46.40639475
3.830730264	-7.045348321	46.32975143
3.836861487	-7.035332072	46.27967113
3.842476196	-7.024997651	46.23903051
3.848090905	-7.0139787	46.20256468
3.855239919	-6.999680959	46.16088081
3.861662234	-6.987173076	46.12668764
3.868506658	-6.974645887	46.0924245
3.875351082	-6.963626717	46.05929762
3.882195506	-6.954359168	46.02620029
3.889555776	-6.945984468	45.98966172
3.899667163	-6.936766025	45.93686273
3.907815234	-6.930961149	45.89206062
3.915963305	-6.925955777	45.84590721
3.924111376	-6.921230319	45.79940085
3.932259447	-6.916457922	45.75353155
3.940407518	-6.911701408	45.70891822
3.950742958	-6.906076724	45.65439713
3.961078398	-6.901142483	45.60206555
3.970933828	-6.897353418	45.55437142
3.978649364	-6.895063447	45.51885169
3.986364901	-6.893205996	45.48520914
3.994080437	-6.891537096	45.45357946
4.001795973	-6.889882852	45.42389628
4.013662042	-6.887135544	45.38154546
4.023875429	-6.88463355	45.34760241
4.034088816	-6.881632375	45.31558467
4.041801709	-6.879032237	45.29280935
4.048603142	-6.876480676	45.27388076
4.055404576	-6.873697044	45.25611583
4.064230198	-6.869974313	45.23469675
4.068774796	-6.867988468	45.22419628
4.073319395	-6.866010633	45.21384809
4.079824188	-6.863245921	45.19882478
4.086328981	-6.860103648	45.18265647
4.092833773	-6.85620857	45.16414929
4.101443385	-6.84993185	45.13425808
4.110052996	-6.842148938	45.09677085
4.118662607	-6.833224251	45.05190924
4.127272218	-6.823501694	45.00174869
4.13588183	-6.813530463	44.94903235
4.144491441	-6.803304433	44.89579731
4.152180013	-6.793930005	44.84847885
4.159294655	-6.785060163	44.80457092
4.166409296	-6.775944002	44.75976963
4.174350809	-6.765299096	44.70772222
4.181037027	-6.755361362	44.66186348
4.186790666	-6.745868184	44.62103928
4.192544305	-6.735182109	44.57935507
4.197892384	-6.723684156	44.54035109
4.204443952	-6.707161747	44.49298748
4.210995521	-6.687795572	44.44674253
4.217937966	-6.663614294	44.39945119
4.224880411	-6.635259682	44.35436885
4.231017001	-6.606405182	44.31670251
